<svg width="727" height="492" viewBox="0 0 727 492" fill="none" xmlns="http://www.w3.org/2000/svg">
<g clip-path="url(#clip0)">
<path d="M670.734 273.181C701.809 273.181 727 246.534 727 213.662C727 180.791 701.809 154.143 670.734 154.143C639.66 154.143 614.469 180.791 614.469 213.662C614.469 246.534 639.66 273.181 670.734 273.181Z" fill="#FDD089"/>
<path d="M498.512 492.003C601.747 492.003 685.434 412.249 685.434 313.868C685.434 215.486 601.747 135.732 498.512 135.732C395.278 135.732 311.59 215.486 311.59 313.868C311.59 412.249 395.278 492.003 498.512 492.003Z" fill="#FDD089"/>
<path d="M223.269 98.377C222.845 98.3782 222.434 98.2344 222.103 97.9696C221.772 97.7048 221.542 97.335 221.451 96.9215C221.36 96.5081 221.413 96.0759 221.602 95.697C221.791 95.318 222.104 95.015 222.489 94.8384L288.904 64.302C289.352 64.0963 289.863 64.0766 290.325 64.2472C290.787 64.4177 291.162 64.7645 291.368 65.2114C291.574 65.6582 291.594 66.1684 291.423 66.6298C291.252 67.0911 290.905 67.4659 290.457 67.6715L224.046 98.2079C223.802 98.3191 223.537 98.3768 223.269 98.377Z" fill="#184655"/>
<path d="M218.067 217.839C217.988 217.844 217.909 217.844 217.83 217.839C217.344 217.773 216.902 217.518 216.603 217.129C216.304 216.74 216.171 216.249 216.233 215.762L234.058 76.2613C234.088 76.0189 234.166 75.7848 234.287 75.5725C234.408 75.3602 234.57 75.1737 234.763 75.0238C234.956 74.8738 235.177 74.7634 235.413 74.6987C235.649 74.634 235.895 74.6163 236.138 74.6467C236.381 74.6771 236.615 74.7549 236.828 74.8757C237.041 74.9966 237.227 75.158 237.377 75.3509C237.528 75.5438 237.638 75.7644 237.703 75.9999C237.768 76.2355 237.785 76.4815 237.755 76.7239L219.907 216.221C219.851 216.669 219.632 217.08 219.293 217.378C218.954 217.676 218.518 217.84 218.067 217.839Z" fill="#184655"/>
<path d="M314.469 76.1145C308.503 61.9567 295.832 53.7786 286.175 57.8341C276.518 61.8897 273.524 76.6601 279.49 90.8147C280.885 94.1516 282.736 97.2796 284.99 100.11L317.285 86.5358C316.832 82.949 315.885 79.442 314.469 76.1145Z" fill="#F7CC7F"/>
<path d="M241.136 91.2582C241.136 92.7015 240.707 94.1124 239.904 95.3125C239.101 96.5126 237.96 97.4479 236.624 98.0002C235.289 98.5526 233.819 98.6971 232.402 98.4155C230.984 98.1339 229.682 97.4389 228.66 96.4183C227.638 95.3978 226.942 94.0975 226.66 92.6819C226.378 91.2663 226.522 89.7991 227.076 88.4656C227.629 87.1322 228.565 85.9925 229.767 85.1906C230.969 84.3888 232.382 83.9608 233.828 83.9608C234.787 83.9604 235.738 84.1488 236.625 84.5154C237.512 84.882 238.318 85.4195 238.996 86.0972C239.675 86.7749 240.213 87.5796 240.581 88.4651C240.948 89.3507 241.136 90.2998 241.136 91.2582Z" fill="#184655"/>
<path d="M467.035 219.747C454.825 218.168 441.448 214.54 441.448 214.54C441.448 214.54 439.265 189.97 439.176 189.067C438.393 176.454 436.824 168.046 444.995 159.073C448.878 154.807 466.917 157.427 469.921 172.612C472.714 186.687 469.768 206.649 467.853 219.138L467.745 219.856L467.035 219.747Z" fill="#B75742"/>
<path d="M127.956 375.563C127.956 375.563 64.6828 330.214 55.7606 310.552C46.8384 290.89 64.4399 292.776 64.4399 292.776C64.4399 292.776 38.6448 257.821 45.0584 245.96C51.472 234.1 62.4682 239.875 62.4682 239.875C62.4682 239.875 53.0219 201.039 63.0818 198.152C81.8178 192.801 98.3232 244.132 98.3232 244.132C98.3232 244.132 100.304 223.678 108.351 225.366C126.272 229.128 117.753 275.715 117.753 275.715C117.753 275.715 122.751 258.232 132.66 265.823C150.441 279.451 127.956 375.563 127.956 375.563Z" fill="#355389"/>
<path d="M134.571 263.277C125.176 256.767 118.778 266.755 118.778 266.755C118.778 266.755 126.183 229.553 108.351 225.395C98.9847 223.213 98.3232 244.16 98.3232 244.16C98.3232 244.16 81.8082 192.813 63.0818 198.152L128.161 374.81C130.701 363.658 149.556 273.663 134.571 263.277Z" fill="#466EB6"/>
<path d="M110.588 361.478C110.588 361.478 45.4994 361.504 36.4494 360.451C27.3993 359.398 37.4081 351.331 37.4081 351.331C37.4081 351.331 17.1541 352.069 14.0799 347.148C11.0057 342.228 19.2664 340.291 19.2664 340.291C19.2664 340.291 -0.92996 334.455 0.0319259 330.173C1.82787 322.196 24.1046 327.397 24.1046 327.397C24.1046 327.397 15.8279 323.386 19.1929 319.659C24.2644 314.034 45.9212 329.321 45.9212 329.321C45.9212 329.321 39.2679 315.987 42.5882 312.02C55.5401 296.538 110.588 361.478 110.588 361.478Z" fill="#9BC1F9"/>
<path d="M126.723 377.024C126.723 377.024 189.057 364.944 202.836 353.393C216.616 341.842 199.714 340.948 199.714 340.948C199.714 340.948 236.665 326.976 236.199 315.699C235.732 304.423 219.86 303.75 219.86 303.75C219.86 303.75 241.909 284.024 237.381 274.464C230.424 259.786 198.887 287.636 198.887 287.636C198.887 287.636 199.65 263.369 189.869 261.034C175.117 257.524 162.386 303.076 162.386 303.076C162.386 303.076 160.149 292.077 150.003 294.174C131.823 297.933 126.723 377.024 126.723 377.024Z" fill="#86B1F2"/>
<path d="M92.3985 434.632H179.873C191.016 422.05 192.131 403.463 191.885 384.456C191.757 374.854 195.832 367.739 192.498 359.522L79.715 361.089C76.4924 369.764 74.9104 378.96 75.0494 388.211C75.2859 406.319 81.8625 422.647 92.3985 434.632Z" fill="#F47458"/>
<path d="M629.271 432.625H20.6821C19.7566 432.625 18.869 432.992 18.2146 433.645C17.5601 434.299 17.1925 435.185 17.1925 436.109C17.1925 437.033 17.5601 437.919 18.2146 438.573C18.869 439.226 19.7566 439.593 20.6821 439.593H629.37C629.843 439.593 630.31 439.497 630.744 439.311C631.179 439.125 631.571 438.853 631.896 438.512C632.222 438.17 632.475 437.766 632.641 437.324C632.806 436.882 632.879 436.411 632.857 435.94C632.797 435.034 632.392 434.186 631.725 433.569C631.058 432.953 630.18 432.615 629.271 432.625Z" fill="#13375B"/>
<path d="M394.514 19.745C407.497 15.7277 418.931 29.6685 412.479 41.6788C411.338 43.8499 411.015 46.3578 411.569 48.7466L413.416 56.963C413.658 58.0552 413.482 59.1984 412.921 60.1668C412.36 61.1352 411.455 61.8582 410.386 62.1928L405.465 63.7148C404.394 64.042 403.24 63.9564 402.229 63.4749C401.219 62.9934 400.426 62.1511 400.007 61.1143C396.856 53.2489 396.265 50.1218 392.12 47.9808C379.999 41.7203 381.527 23.7654 394.514 19.745Z" fill="#F7CC7F"/>
<path d="M408.606 52.5629C406.299 46.1237 404.005 38.9475 403.234 36.2385C400.877 37.1489 398.371 37.6184 395.843 37.6233C398.016 42.8659 400.074 48.2105 401.969 53.5393L401.279 53.7849C399.361 48.3605 397.259 42.9361 395.047 37.6105C393.507 37.5531 391.695 37.4063 390.596 36.3597C390.336 36.106 390.131 35.8024 389.992 35.4674C389.853 35.1324 389.783 34.7727 389.787 34.4101C389.832 32.4956 391.999 31.9532 393.443 33.1561C394.402 33.957 394.849 35.2429 395.539 36.8926C398.106 36.9262 400.656 36.4625 403.046 35.5269C402.704 34.1421 402.56 32.7892 403.046 31.5001C404.743 26.9723 410.981 32.904 403.915 35.9673C404.513 38.0892 406.836 45.4664 409.293 52.3235L408.606 52.5629ZM403.73 31.7553C403.324 32.837 403.436 34.0176 403.73 35.2429C405.257 34.5665 406.136 33.7656 406.417 32.8051C406.89 31.1906 404.644 29.3207 403.73 31.7553ZM390.902 33.5326C390.263 34.0847 390.481 35.2429 391.101 35.83C391.983 36.6692 393.475 36.7873 394.734 36.8671C394.188 35.5588 393.775 34.3878 392.976 33.7177C392.424 33.2487 390.973 33.472 390.902 33.5326Z" fill="#FAE0B2"/>
<path d="M411.534 48.5392C411.534 48.6062 411.553 48.6764 411.569 48.7466L413.416 56.963C413.658 58.0552 413.482 59.1985 412.921 60.1668C412.36 61.1352 411.455 61.8582 410.386 62.1928L405.465 63.7149C404.394 64.042 403.24 63.9564 402.229 63.4749C401.219 62.9934 400.426 62.1511 400.007 61.1143C398.604 57.6044 397.709 55.0517 396.782 53.1021L411.534 48.5392Z" fill="#96D9C9"/>
<path d="M400.672 9.84378L400.991 1.51566C401.004 1.32068 400.977 1.12511 400.913 0.940521C400.849 0.755933 400.748 0.586077 400.617 0.441C400.486 0.295922 400.327 0.178568 400.15 0.095881C399.973 0.0131937 399.781 -0.0331485 399.585 -0.0404044C399.389 -0.0476603 399.194 -0.0156826 399.011 0.0536374C398.828 0.122957 398.661 0.228212 398.52 0.363175C398.378 0.498138 398.265 0.660068 398.187 0.839389C398.11 1.01871 398.069 1.21178 398.067 1.40717L397.748 9.73529C397.735 9.93027 397.761 10.1258 397.825 10.3104C397.89 10.495 397.99 10.6649 398.121 10.8099C398.252 10.955 398.411 11.0724 398.589 11.1551C398.766 11.2378 398.958 11.2841 399.154 11.2914C399.349 11.2986 399.544 11.2666 399.727 11.1973C399.91 11.128 400.077 11.0227 400.219 10.8878C400.36 10.7528 400.473 10.5909 400.551 10.4116C400.629 10.2322 400.67 10.0392 400.672 9.84378Z" fill="#FAE0B2"/>
<path d="M416.432 21.7457L423.91 17.1604C424.241 16.9577 424.478 16.6321 424.568 16.2551C424.659 15.8781 424.596 15.4806 424.393 15.1502C424.19 14.8197 423.864 14.5833 423.486 14.4929C423.108 14.4026 422.71 14.4657 422.379 14.6684L414.902 19.2568C414.73 19.3532 414.58 19.4832 414.46 19.639C414.34 19.7948 414.252 19.9732 414.203 20.1635C414.153 20.3538 414.143 20.5521 414.172 20.7466C414.201 20.941 414.269 21.1276 414.372 21.2951C414.475 21.4626 414.611 21.6077 414.772 21.7216C414.932 21.8354 415.114 21.9158 415.306 21.9579C415.499 22 415.698 22.0028 415.891 21.9664C416.085 21.9299 416.269 21.8548 416.432 21.7457Z" fill="#FAE0B2"/>
<path d="M436.172 41.8001C436.292 41.4315 436.261 41.0305 436.085 40.6848C435.91 40.3391 435.604 40.0769 435.236 39.9558C432.356 39.0187 429.395 38.3563 426.39 37.9775C426.014 37.9469 425.641 38.0624 425.348 38.2998C425.056 38.5373 424.866 38.8784 424.819 39.252C424.772 39.6256 424.871 40.0029 425.096 40.3053C425.321 40.6076 425.654 40.8116 426.026 40.8748C428.848 41.2302 431.63 41.853 434.334 42.735C434.702 42.8529 435.102 42.8207 435.446 42.6456C435.79 42.4705 436.051 42.1665 436.172 41.8001Z" fill="#FAE0B2"/>
<path d="M381.175 19.1451C381.319 19.0181 381.436 18.8639 381.521 18.6915C381.605 18.5191 381.654 18.3318 381.666 18.1403C381.677 17.9488 381.651 17.7569 381.588 17.5756C381.525 17.3943 381.427 17.2272 381.3 17.0838C378.751 14.2106 376.508 11.0806 374.608 7.7442C374.416 7.40569 374.097 7.1572 373.722 7.05337C373.346 6.94955 372.945 6.99891 372.606 7.19059C372.267 7.38227 372.018 7.70057 371.914 8.07547C371.81 8.45036 371.859 8.85115 372.051 9.18965C374.049 12.7001 376.405 15.9947 379.082 19.0207C379.21 19.1683 379.366 19.2889 379.541 19.3753C379.716 19.4617 379.907 19.5122 380.102 19.5238C380.297 19.5354 380.493 19.5079 380.677 19.4428C380.861 19.3778 381.031 19.2765 381.175 19.1451Z" fill="#FAE0B2"/>
<path d="M378.149 33.1848C378.082 32.8033 377.867 32.4636 377.55 32.2405C377.233 32.0173 376.84 31.9289 376.458 31.9946L367.105 33.5901C366.904 33.6088 366.709 33.6688 366.532 33.7662C366.356 33.8637 366.201 33.9966 366.079 34.1565C365.956 34.3165 365.868 34.5 365.819 34.6956C365.771 34.8912 365.764 35.0947 365.798 35.2932C365.832 35.4917 365.907 35.681 366.018 35.8492C366.129 36.0175 366.274 36.1609 366.443 36.2707C366.612 36.3804 366.803 36.4541 367.002 36.4869C367.201 36.5198 367.404 36.5113 367.6 36.4618L376.953 34.8504C377.332 34.7848 377.669 34.5734 377.892 34.2618C378.116 33.9503 378.208 33.5635 378.149 33.1848Z" fill="#FAE0B2"/>
<path d="M375.608 61.4589C375.725 61.3985 375.832 61.3222 375.928 61.2324C378.354 59.0266 380.536 56.5661 382.434 53.8934C382.659 53.5782 382.749 53.1866 382.685 52.8048C382.621 52.4231 382.408 52.0823 382.092 51.8577C381.776 51.633 381.384 51.5427 381.002 51.6067C380.62 51.6708 380.278 51.8838 380.053 52.1991C378.272 54.695 376.229 56.9938 373.959 59.0562C373.701 59.2942 373.537 59.6172 373.497 59.9661C373.457 60.315 373.545 60.6664 373.743 60.9562C373.942 61.2459 374.239 61.4545 374.579 61.5439C374.919 61.6333 375.28 61.5975 375.595 61.443L375.608 61.4589Z" fill="#FAE0B2"/>
<path d="M290.266 284.643H424.933V240.338H290.266V284.643Z" fill="#13375B"/>
<path d="M234.464 410.659H335.183V237.804H234.464V410.659Z" fill="#FAE0B2"/>
<path d="M276.288 432.829H286.508V410.231H276.288V432.829Z" fill="#184655"/>
<path d="M219.633 432.819H229.852V410.582H219.633V432.819Z" fill="#184655"/>
<path d="M565.084 432.679H575.853C561.06 423.087 552.582 398.189 548.169 381.511C539.618 349.401 537.684 318.102 537.652 317.85L523.007 319.981C527.631 350.355 540.132 409.574 565.084 432.679Z" fill="#355389"/>
<path d="M179.192 410.659H342.981V237.804L179.192 237.804L179.192 410.659Z" fill="#355389"/>
<path d="M179.416 432.909H191.47L191.47 233.969H179.416L179.416 432.909Z" fill="#184655"/>
<path d="M177.057 229.183H281.26C285.242 229.183 288.467 225.842 288.467 221.719V217.297C288.467 213.174 285.242 209.833 281.26 209.833H177.057C179.366 212.48 180.653 215.862 180.688 219.371C180.722 222.881 179.502 226.287 177.246 228.978L177.057 229.183Z" fill="#B75742"/>
<path d="M178.665 212.035H236.477C240.455 212.035 243.683 215.376 243.683 219.498C243.683 223.621 240.455 226.962 236.477 226.962H178.661C179.986 224.697 180.684 222.122 180.685 219.499C180.685 216.876 179.988 214.3 178.665 212.035Z" fill="#FAE0B2"/>
<path d="M207.317 196.259H294.116C295.411 196.259 296.653 196.773 297.569 197.688C298.485 198.602 298.999 199.842 298.999 201.135V205.232C298.999 206.525 298.485 207.765 297.569 208.68C296.653 209.594 295.411 210.108 294.116 210.108H207.317L207.361 210.06C209.148 208.203 210.142 205.726 210.134 203.151C210.125 200.576 209.115 198.105 207.317 196.259Z" fill="#F47458"/>
<path d="M208.854 198.311H255.254C256.547 198.315 257.785 198.829 258.698 199.743C259.611 200.656 260.124 201.893 260.124 203.184C260.12 204.472 259.606 205.706 258.693 206.616C257.781 207.527 256.544 208.04 255.254 208.043H208.854C209.69 206.557 210.129 204.882 210.129 203.177C210.129 201.473 209.69 199.797 208.854 198.311Z" fill="#FAE0B2"/>
<path d="M454.419 163.716C447.887 155.42 434.034 160.666 439.176 188.12C439.204 188.273 440.601 209.677 439.975 217.951C433.388 216.422 421.386 212.447 412.626 211.997C412.626 211.997 401.911 201.569 397.696 199.674C394.574 198.27 386.099 198.981 386.099 198.981C386.099 198.981 373.748 205.494 374.704 207.597C376.011 210.468 383.131 202.309 387.02 203.637C387.02 203.637 378.014 208.675 380.159 209.588C382.303 210.5 385.911 209.304 387.653 209.182C389.394 209.061 395.721 214.262 400.649 216.84C401.461 217.268 403.362 218.934 407.076 220.969C410.84 223.034 414.806 226.515 419.948 228.627C433.778 234.317 449.149 241.866 454.46 237.817L454.432 237.756C460.532 230.593 465.326 177.529 454.419 163.716Z" fill="#F48C7F"/>
<path d="M580.832 180.628C573.453 179.051 566.058 183.18 564.179 189.916L536.623 288.855C535.645 292.365 532.194 294.831 528.244 294.831H444.071C440.703 294.831 437.473 296.167 435.092 298.545C432.71 300.923 431.372 304.149 431.372 307.512C431.373 310.795 432.649 313.949 434.932 316.312C437.214 318.675 440.326 320.063 443.611 320.182L544.811 323.852C551.55 323.852 559.069 314.774 560.693 308.766L591.192 196.173C593.065 189.246 588.402 182.248 580.832 180.628Z" fill="#13375B"/>
<path d="M445.327 432.679H450.76C455.678 398.885 456.675 359.289 451.175 308.143L437.987 308.415C446.749 359.155 448.2 398.792 445.327 432.679Z" fill="#13375B"/>
<path d="M413.425 433.32H427.665V232.134H413.425V433.32Z" fill="#184655"/>
<path d="M385.713 391.198C382.012 398.071 372.959 420.736 372.611 422.468C372.512 422.966 371.23 424.616 370.802 424.932C359.116 426.099 350.567 419.826 344.077 413.658C350.206 414.086 359.572 412.506 360.937 412.273C364.491 411.667 364.11 400.869 366.14 388.738C369.303 390.174 381.127 387.05 385.713 391.198Z" fill="#F7A491"/>
<path d="M372.659 422.312C371.7 426.106 367.67 433.1 366.907 432.899C365.98 432.66 331.483 420.292 328.514 415.349C326.683 412.305 336.113 412.159 343.706 412.548C350.184 418.732 370.665 423.295 372.659 422.312Z" fill="#355389"/>
<path d="M497.173 294.257L425.911 302.087L387.653 400.046L364.404 395.502C364.404 395.502 377.452 290.843 385.054 282.084C405.785 258.194 478.217 261.024 478.217 261.024L497.173 294.257Z" fill="#3C8F7C"/>
<path d="M435.245 396.645C434.948 401.306 433.877 406.951 434.088 412.388C434.229 416.039 435.587 420.48 435.75 421.166C435.865 421.658 435.389 423.693 435.133 424.156C425 430.085 414.611 427.947 406.133 425.034C411.885 422.873 415.883 418.572 417.318 417.005C419.762 414.357 418.021 406.412 414.799 394.542C418.286 394.542 429.349 394.784 435.245 396.645Z" fill="#F7A491"/>
<path d="M488.612 251.279C488.612 251.279 414.023 255.312 395.213 282.798C381.153 303.363 416.186 404.804 416.186 404.804L437.278 400.927C437.278 400.927 432.42 332.186 428.905 309.509C428.311 305.68 425.569 294.314 425.569 294.314C425.569 294.314 505.482 302.157 518.447 295.425C531.411 288.692 536.847 270.44 531.143 258.529C525.439 246.617 488.612 251.279 488.612 251.279Z" fill="#50BFA5"/>
<path d="M435.721 421.01C437.035 423.416 437.715 432.733 436.926 432.874C435.967 433.043 396.341 435.26 391.58 432.009C388.643 430.005 399.08 427.845 406.142 425.034C414.62 427.947 435.293 423.588 435.721 421.01Z" fill="#355389"/>
<path d="M447.091 145.327C440.448 146.489 440.042 151.846 440.042 151.846L433.238 180.165C433.238 180.165 432.599 192.159 433.992 196.757C436.674 205.692 442.097 209.202 450.977 212.242C462.753 216.263 467.406 226.4 472.484 232.316C481.294 242.578 474.126 254.856 474.126 254.856L497.55 262.24L532.6 257.54C532.6 257.54 536.537 251.477 522.588 217.766C510.477 188.477 481.448 139.328 447.091 145.327Z" fill="#F47458"/>
<path d="M465.463 432.679H470.813C477.741 381.692 475.647 324.889 468.802 274.094C468.622 272.758 468.722 271.4 469.095 270.105C469.468 268.81 470.107 267.606 470.971 266.571C471.835 265.535 472.905 264.69 474.113 264.09C475.322 263.489 476.642 263.146 477.99 263.082L558.558 259.272V253.711C558.526 253.711 490.44 249.563 459.851 247.798C458.501 247.721 457.151 247.958 455.908 248.49C454.665 249.023 453.563 249.837 452.689 250.867C451.815 251.898 451.193 253.117 450.871 254.429C450.55 255.741 450.538 257.11 450.837 258.427C451.731 262.399 452.802 267.39 453.975 273.369C464.035 324.331 469.569 380.805 465.463 432.679Z" fill="#355389"/>
<path d="M473.107 151.476C465.553 143.18 452.179 148.508 458.123 175.959C458.158 176.112 458.104 202.555 457.381 210.829C449.763 209.3 433.357 201.926 422.952 199.454C422.952 199.454 412.406 189.329 407.523 187.434C403.912 186.026 394.101 186.738 394.101 186.738C394.101 186.738 379.823 193.254 380.929 195.353C382.437 198.225 390.672 190.063 395.169 191.393C395.169 191.393 384.754 196.432 387.237 197.344C389.72 198.257 393.874 197.06 395.897 196.936C397.92 196.811 403.471 202.785 409.166 205.373C410.105 205.797 414.061 206.697 418.356 208.729C422.709 210.794 466.016 241.005 469.998 234.818C480.562 218.426 485.704 165.286 473.107 151.476Z" fill="#F7A491"/>
<path d="M479.664 207.134C467.457 205.554 454.077 201.926 454.077 201.926C454.077 201.926 451.898 177.357 451.808 176.454C451.022 163.84 449.453 155.433 457.627 146.46C461.51 142.194 479.546 144.81 482.553 159.995C485.346 174.07 482.4 194.035 480.486 206.524L480.374 207.239L479.664 207.134Z" fill="#B75742"/>
<path d="M441.563 98.6291C442.502 90.4956 442.493 59.5795 461.309 60.2177C480.125 60.8558 480.236 81.5325 495.476 56.6184C509.595 33.5326 535.671 48.453 533.246 67.5534C536.002 67.832 538.649 68.7783 540.957 70.3103C549.185 75.7699 551.183 87.2218 545.395 95.9169C544.475 97.2985 544.552 98.8525 543.385 99.9182C543.967 108.549 540.701 117.669 532.52 126.013C510.192 148.805 498.007 118.036 485.976 117.283C473.944 116.53 479.866 127.136 468.333 132.363C456.8 137.589 448.967 134.162 436.121 111.504L433.056 105.352C433.056 105.352 440.627 106.763 441.563 98.6291Z" fill="#B75742"/>
<path d="M430.714 93.026C443.953 102.254 446.877 125.745 434.692 136.964C426.77 144.252 411.169 145.522 402.506 138.291C388.445 126.562 386.889 113.288 391.871 102.873C398.3 89.4172 419.791 85.4158 430.714 93.026Z" fill="#B75742"/>
<path d="M434.849 124.855C434.849 124.855 438.926 137.503 453.294 144.797C455.061 145.697 433.251 180.723 433.241 180.305C433.178 177.603 437.012 161.824 436.079 159.884C433.523 154.577 418.717 130.381 418.717 130.381L434.849 124.855Z" fill="#F7A491"/>
<path d="M426.617 127.679L418.724 130.381C418.724 130.404 425.233 141.013 430.356 149.715C432.174 148.228 433.782 146.071 435.066 143.116C437.124 138.381 437.434 133.457 436.645 128.776C435.937 127.523 435.338 126.211 434.855 124.855L426.617 127.679Z" fill="#F47458"/>
<path d="M405.462 101.124C405.462 101.124 412.527 98.1409 420.213 101.016C427.898 103.891 441.71 122.548 434.593 138.914C427.476 155.279 410.463 147.146 402.908 136.766C395.354 126.386 387.841 110.722 405.462 101.124Z" fill="#F7A491"/>
<path d="M436.082 110.403C429.991 99.8448 423.3 93.6514 413.921 96.0445C404.541 98.4377 396.108 100.052 395.475 111.057L394.798 112.937C394.798 112.937 408.395 106.303 414.036 111.495C419.676 116.686 431.487 118.377 433.056 121.977C434.625 125.576 438.511 132.092 438.511 132.092L439.211 128.046C439.211 128.046 442.17 120.952 436.082 110.403Z" fill="#B75742"/>
<path d="M421.74 116.862C423.019 120.139 425.895 122.028 428.157 121.086C430.42 120.145 431.241 116.724 429.969 113.447C428.697 110.17 425.815 108.281 423.555 109.223C421.296 110.164 420.472 113.594 421.74 116.862Z" fill="#F7A491"/>
<path d="M340.699 432.909H354.229V233.969H340.699V432.909Z" fill="#184655"/>
<path d="M265.177 129.229C265.177 129.229 274.879 132.503 278.8 142.707C284.127 156.559 275.892 178.764 278.244 184.938C280.596 191.113 291.665 197.858 291.665 197.858L316.805 188.956C316.805 188.956 308.011 172.386 308.26 166.699C308.51 161.013 307.656 134.162 297.13 129.229H265.177Z" fill="#FAE0B2"/>
<path d="M298.367 134.906H278.058C277.927 134.906 277.801 134.854 277.708 134.761C277.615 134.668 277.563 134.542 277.563 134.411C277.563 134.28 277.615 134.154 277.708 134.062C277.801 133.969 277.927 133.917 278.058 133.917H298.367C298.498 133.917 298.624 133.969 298.717 134.062C298.81 134.154 298.862 134.28 298.862 134.411C298.862 134.542 298.81 134.668 298.717 134.761C298.624 134.854 298.498 134.906 298.367 134.906Z" fill="#13375B"/>
<path d="M301.958 138.738H281.155C281.024 138.738 280.898 138.686 280.805 138.593C280.712 138.5 280.66 138.375 280.66 138.243C280.66 138.112 280.712 137.987 280.805 137.894C280.898 137.801 281.024 137.749 281.155 137.749H301.958C302.09 137.749 302.216 137.801 302.309 137.894C302.402 137.987 302.454 138.112 302.454 138.243C302.454 138.375 302.402 138.5 302.309 138.593C302.216 138.686 302.09 138.738 301.958 138.738Z" fill="#13375B"/>
<path d="M302.946 143.068H288.709C288.578 143.068 288.452 143.016 288.359 142.923C288.266 142.83 288.214 142.705 288.214 142.573C288.214 142.442 288.266 142.316 288.359 142.224C288.452 142.131 288.578 142.079 288.709 142.079H302.946C303.077 142.079 303.203 142.131 303.296 142.224C303.389 142.316 303.441 142.442 303.441 142.573C303.441 142.705 303.389 142.83 303.296 142.923C303.203 143.016 303.077 143.068 302.946 143.068Z" fill="#13375B"/>
<path d="M302.083 223.442H279.627V228.966H302.083V223.442Z" fill="#13375B"/>
<path d="M380.35 222.287H356.409V228.924H380.35V222.287Z" fill="#13375B"/>
<path d="M279.707 184.862H271.948V171.754H278.8L279.707 184.862Z" fill="#13375B"/>
<path d="M284.91 163.69C284.907 165.678 284.314 167.621 283.205 169.272C282.097 170.924 280.524 172.211 278.684 172.97C276.844 173.729 274.82 173.927 272.867 173.538C270.915 173.149 269.121 172.191 267.714 170.785C266.306 169.379 265.347 167.588 264.958 165.639C264.57 163.689 264.768 161.668 265.529 159.831C266.29 157.994 267.579 156.423 269.233 155.317C270.888 154.211 272.833 153.619 274.824 153.617C276.15 153.615 277.462 153.875 278.687 154.38C279.911 154.886 281.024 155.628 281.961 156.564C282.898 157.5 283.64 158.611 284.146 159.834C284.653 161.057 284.912 162.367 284.91 163.69Z" fill="#466EB6"/>
<path d="M280.123 163.69C280.12 164.733 279.808 165.752 279.227 166.618C278.645 167.484 277.819 168.158 276.854 168.556C275.889 168.954 274.827 169.057 273.803 168.853C272.779 168.649 271.838 168.147 271.1 167.41C270.361 166.672 269.858 165.733 269.654 164.71C269.449 163.688 269.553 162.628 269.951 161.664C270.35 160.7 271.025 159.876 271.893 159.295C272.76 158.714 273.78 158.403 274.824 158.4C275.521 158.398 276.21 158.534 276.854 158.799C277.498 159.065 278.082 159.454 278.575 159.946C279.067 160.437 279.457 161.021 279.723 161.664C279.989 162.307 280.124 162.995 280.123 163.69Z" fill="#13375B"/>
<path d="M293.209 151.186C293.209 151.969 292.977 152.735 292.542 153.387C292.106 154.038 291.487 154.546 290.762 154.847C290.037 155.147 289.24 155.225 288.47 155.073C287.701 154.92 286.994 154.543 286.439 153.989C285.884 153.435 285.506 152.729 285.353 151.96C285.2 151.192 285.279 150.396 285.58 149.672C285.88 148.948 286.389 148.33 287.042 147.895C287.694 147.46 288.462 147.228 289.246 147.229C290.297 147.23 291.304 147.647 292.047 148.389C292.79 149.131 293.208 150.136 293.209 151.186Z" fill="#13375B"/>
<path d="M278.752 184.431L276.866 181.824C276.975 181.748 287.626 174.003 289.783 167.65C291.905 161.406 289.106 154.507 289.08 154.437L292.052 153.202C292.189 153.521 295.353 161.269 292.832 168.681C290.342 176.014 279.225 184.093 278.752 184.431Z" fill="#13375B"/>
<path d="M318.966 151.186C318.966 151.968 318.733 152.733 318.298 153.384C317.862 154.034 317.244 154.542 316.519 154.841C315.795 155.14 314.999 155.219 314.23 155.066C313.461 154.914 312.755 154.537 312.201 153.983C311.647 153.43 311.269 152.725 311.117 151.957C310.964 151.19 311.042 150.394 311.342 149.671C311.642 148.948 312.15 148.33 312.802 147.896C313.453 147.461 314.219 147.229 315.003 147.229C316.054 147.23 317.061 147.647 317.804 148.389C318.547 149.131 318.965 150.136 318.966 151.186Z" fill="#13375B"/>
<path d="M304.512 184.431L302.626 181.824C302.735 181.748 313.383 174.003 315.543 167.65C317.665 161.406 314.866 154.507 314.837 154.437L317.812 153.202C317.946 153.521 321.11 161.269 318.592 168.681C316.102 176.014 304.985 184.093 304.512 184.431Z" fill="#13375B"/>
<path d="M313.392 149.702H289.988V151.68H313.392V149.702Z" fill="#13375B"/>
<path d="M329.307 164.648C329.307 169.565 325.833 173.55 321.548 173.55C317.262 173.55 313.785 169.562 313.785 164.648C313.785 159.734 317.259 155.745 321.548 155.745C325.836 155.745 329.307 159.727 329.307 164.648Z" fill="#466EB6"/>
<path d="M321.752 155.784H302.598V173.857H321.752V155.784Z" fill="#466EB6"/>
<path d="M312.341 164.728C312.341 169.645 308.126 173.63 302.93 173.63C297.734 173.63 293.519 169.645 293.519 164.728C293.519 159.81 297.731 155.825 302.93 155.825C308.129 155.825 312.341 159.81 312.341 164.728Z" fill="#13375B"/>
<path d="M366.728 196.486C366.728 197.51 364.81 198.34 362.455 198.34C360.1 198.34 358.182 197.51 358.182 196.486C358.182 195.462 360.1 194.632 362.455 194.632C364.81 194.632 366.728 195.462 366.728 196.486Z" fill="#13375B"/>
<path d="M375.397 201.154C375.397 202.127 373.844 202.916 371.93 202.916C370.016 202.916 368.463 202.127 368.463 201.154C368.463 200.181 370.016 199.393 371.93 199.393C373.844 199.393 375.397 200.181 375.397 201.154Z" fill="#13375B"/>
<path d="M386.294 201.154C386.294 202.127 384.741 202.916 382.827 202.916C380.913 202.916 379.36 202.127 379.36 201.154C379.36 200.181 380.913 199.393 382.827 199.393C384.741 199.393 386.294 200.181 386.294 201.154Z" fill="#13375B"/>
<path d="M380.97 197.194C380.97 198.152 379.417 198.956 377.503 198.956C375.589 198.956 374.036 198.168 374.036 197.194C374.036 196.221 375.586 195.433 377.503 195.433C379.421 195.433 380.97 196.237 380.97 197.194Z" fill="#13375B"/>
<path d="M372.86 201.866H371.125V214.789H372.86V201.866Z" fill="#13375B"/>
<path d="M370.444 204.616C370.444 205.574 368.891 206.378 366.977 206.378C365.063 206.378 363.51 205.59 363.51 204.616C363.51 203.643 365.059 202.855 366.977 202.855C368.894 202.855 370.444 203.643 370.444 204.616Z" fill="#13375B"/>
<path d="M367.907 205.328H366.172V218.251H367.907V205.328Z" fill="#13375B"/>
<path d="M363.324 197.66H361.589V210.583H363.324V197.66Z" fill="#13375B"/>
<path d="M383.754 201.802H382.022V214.725H383.754V201.802Z" fill="#13375B"/>
<path d="M378.366 198.525H376.634V212.188H378.366V198.525Z" fill="#13375B"/>
<path d="M388.771 209.999V224.926H265.672V184.616H284.411L291.678 171.508L337.088 171.291L341.562 171.269C339.696 197.392 364.382 216.675 388.771 209.999Z" fill="#13375B"/>
<path d="M388.771 209.999V214.6C361.33 221.25 335.302 199.438 337.091 171.291L341.565 171.269C339.696 197.392 364.382 216.674 388.771 209.999Z" fill="#466EB6"/>
<path d="M358.802 218.254H271.881V188.324C271.869 188.135 271.785 187.959 271.647 187.83C271.509 187.701 271.327 187.629 271.138 187.629C270.949 187.629 270.767 187.701 270.629 187.83C270.491 187.959 270.408 188.135 270.395 188.324V218.991C270.395 219.089 270.414 219.185 270.452 219.276C270.489 219.366 270.544 219.448 270.613 219.517C270.682 219.586 270.765 219.641 270.855 219.678C270.945 219.715 271.042 219.735 271.14 219.735H358.818C359.007 219.722 359.184 219.639 359.313 219.501C359.442 219.363 359.514 219.181 359.514 218.993C359.514 218.804 359.442 218.622 359.313 218.484C359.184 218.347 359.007 218.263 358.818 218.251L358.802 218.254Z" fill="#466EB6"/>
<path d="M148.127 241.155L444.771 241.155C447.2 241.155 449.168 239.189 449.168 236.764V233.302C449.168 230.877 447.2 228.911 444.771 228.911L148.127 228.911C145.699 228.911 143.73 230.877 143.73 233.302V236.764C143.73 239.189 145.699 241.155 148.127 241.155Z" fill="#184655"/>
<path d="M189.884 209.109L184.164 209.645L178.949 161.575L180.735 152.261L184.669 161.039L189.884 209.109Z" fill="#B75742"/>
<path d="M184.679 161.138V161.052L181.95 154.957L180.202 155.104L178.987 161.428C180.761 161.425 182.829 161.559 184.679 161.138Z" fill="#F7CC7F"/>
<path d="M190.92 211.352L185.203 210.797L190.482 167.803C190.658 166.246 191.879 162.867 193.438 163.017C195.036 163.17 195.199 166.757 195.02 168.346L190.92 211.352Z" fill="#13375B"/>
<path d="M193.173 166.964H193.131C193.088 166.96 193.046 166.947 193.008 166.926C192.97 166.905 192.936 166.876 192.91 166.842C192.883 166.808 192.864 166.768 192.853 166.726C192.842 166.684 192.84 166.64 192.847 166.597L193.614 160.484C193.625 160.399 193.669 160.322 193.737 160.27C193.804 160.218 193.89 160.195 193.975 160.206C194.06 160.217 194.137 160.261 194.189 160.329C194.241 160.397 194.264 160.482 194.253 160.567L193.486 166.68C193.477 166.758 193.441 166.829 193.383 166.881C193.326 166.934 193.251 166.963 193.173 166.964Z" fill="#13375B"/>
<path d="M172.494 188.493H198.027V225.003C198.027 226.05 197.61 227.055 196.868 227.796C196.126 228.537 195.12 228.953 194.071 228.953H176.45C175.401 228.953 174.395 228.537 173.653 227.796C172.911 227.055 172.494 226.05 172.494 225.003V188.493Z" fill="#50BFA5"/>
<path d="M187.747 224.256V188.493H172.494V224.256C172.494 225.502 172.989 226.696 173.872 227.577C174.754 228.458 175.95 228.953 177.198 228.953H183.043C184.29 228.953 185.487 228.458 186.369 227.577C187.251 226.696 187.747 225.502 187.747 224.256Z" fill="#96D9C9"/>
<path d="M373.343 176.157L372.157 178.681C371.998 179.018 371.733 179.294 371.403 179.467C371.072 179.64 370.694 179.7 370.326 179.638C370.063 179.594 369.815 179.488 369.6 179.331C369.386 179.173 369.211 178.967 369.091 178.729C368.971 178.492 368.908 178.23 368.907 177.964C368.907 177.697 368.969 177.435 369.089 177.197L375.26 164.922L379.734 165.685L381.549 179.31C381.586 179.575 381.56 179.846 381.472 180.099C381.385 180.352 381.239 180.582 381.046 180.768C380.854 180.955 380.62 181.093 380.363 181.172C380.107 181.252 379.835 181.269 379.571 181.224L379.421 181.199C379.059 181.138 378.727 180.962 378.474 180.697C378.221 180.433 378.06 180.094 378.015 179.731L377.663 176.907L373.343 176.157ZM377.618 174.243L377.222 170.873C377.107 169.932 377.027 168.764 376.957 167.829H376.912C376.535 168.687 376.113 169.795 375.717 170.627L374.272 173.681L377.618 174.243Z" fill="#96D9C9"/>
<path d="M345.16 149.941C346.767 148.848 348.461 147.887 350.225 147.069C352.702 145.882 354.335 145.397 356.009 145.544C356.816 145.558 357.603 145.798 358.281 146.235C358.959 146.673 359.5 147.291 359.844 148.02C360.611 149.616 360.394 151.549 358.729 153.263L358.751 153.314C361.071 152.893 363.327 153.706 364.439 156.02C364.794 156.753 364.975 157.557 364.967 158.371C364.96 159.185 364.765 159.987 364.398 160.713C363.593 162.373 361.691 164.003 358.125 165.71C356.662 166.426 355.151 167.039 353.603 167.545L345.16 149.941ZM352.478 154.874L353.808 154.236C355.939 153.218 356.661 151.792 356.025 150.464C355.389 149.137 353.993 148.888 352.155 149.769C351.572 150.035 351.01 150.347 350.475 150.701L352.478 154.874ZM356.294 162.823C356.84 162.622 357.374 162.389 357.892 162.124C359.729 161.243 361.02 159.775 360.129 157.89C359.259 156.08 357.291 156.141 355.268 157.108L353.884 157.771L356.294 162.823Z" fill="#FAE0B2"/>
<path d="M379.587 137.044C379.753 137.542 379.716 138.085 379.482 138.556C379.249 139.026 378.838 139.386 378.34 139.555C377.167 139.943 375.957 140.215 374.729 140.365C367.271 141.323 362.835 137.175 362.043 131.051C361.084 123.712 365.814 118.926 372.342 118.096C373.472 117.945 374.615 117.91 375.752 117.991C376.019 118.014 376.279 118.091 376.516 118.217C376.752 118.343 376.961 118.516 377.129 118.725C377.297 118.933 377.421 119.174 377.494 119.432C377.566 119.689 377.586 119.959 377.551 120.225V120.298C377.488 120.809 377.229 121.275 376.828 121.6C376.428 121.924 375.917 122.081 375.404 122.037C374.635 121.977 373.861 121.996 373.096 122.095C369.223 122.596 366.517 125.314 367.133 130.107C367.689 134.421 370.601 136.808 374.956 136.249C375.695 136.15 376.423 135.987 377.132 135.761C377.629 135.61 378.165 135.659 378.625 135.898C379.086 136.136 379.434 136.545 379.596 137.037L379.587 137.044Z" fill="#FAE0B2"/>
<path d="M329.681 92.2921C332.228 91.0216 334.869 89.9464 337.58 89.0757C342.601 87.4197 346.151 87.2473 349.337 88.3259C352.756 89.4554 355.556 92.1357 357.099 96.7976C358.77 101.849 358.08 105.943 356.243 108.923C354.223 112.152 350.35 114.647 345.176 116.354C342.914 117.119 340.604 117.736 338.261 118.202L329.681 92.2921ZM342.808 111.849C343.531 111.727 344.24 111.537 344.927 111.281C350.36 109.532 352.897 105.394 350.81 99.0886C349.033 93.5939 344.86 91.7496 339.721 93.4504C338.807 93.729 337.926 94.1078 337.094 94.5799L342.808 111.849Z" fill="#96D9C9"/>
<path d="M631.137 333.763C631.199 334.295 631.102 334.835 630.857 335.312C630.612 335.79 630.231 336.184 629.762 336.445C629.293 336.706 628.757 336.823 628.221 336.78C627.686 336.737 627.175 336.536 626.754 336.203C626.333 335.87 626.02 335.42 625.855 334.91C625.689 334.4 625.68 333.852 625.826 333.336C625.973 332.82 626.269 332.359 626.678 332.011C627.087 331.663 627.59 331.445 628.124 331.382C628.478 331.341 628.837 331.37 629.181 331.467C629.524 331.564 629.845 331.728 630.125 331.949C630.404 332.17 630.638 332.444 630.812 332.755C630.985 333.066 631.096 333.409 631.137 333.763Z" fill="#FAE0B2"/>
<path d="M627.098 335.572C627.268 335.834 627.506 336.046 627.786 336.186C628.066 336.326 628.378 336.388 628.69 336.367C629.002 336.346 629.303 336.243 629.562 336.067C629.821 335.891 630.028 335.649 630.161 335.367C630.295 335.084 630.351 334.771 630.323 334.46C630.295 334.148 630.184 333.85 630.002 333.596C629.82 333.342 629.574 333.141 629.288 333.013C629.002 332.886 628.687 332.837 628.376 332.872C628.079 332.906 627.794 333.015 627.551 333.189C627.307 333.362 627.112 333.596 626.983 333.866C626.855 334.137 626.799 334.435 626.819 334.734C626.839 335.032 626.935 335.321 627.098 335.572Z" fill="#F47458"/>
<path d="M644.757 337.863C644.411 338.273 644.194 338.776 644.134 339.308C644.074 339.841 644.174 340.379 644.42 340.856C644.667 341.332 645.049 341.725 645.518 341.984C645.988 342.244 646.524 342.359 647.059 342.314C647.594 342.27 648.104 342.068 648.524 341.734C648.944 341.401 649.256 340.95 649.42 340.44C649.584 339.929 649.593 339.382 649.446 338.866C649.298 338.351 649.001 337.891 648.592 337.544C648.319 337.313 648.004 337.138 647.663 337.029C647.323 336.92 646.964 336.879 646.608 336.908C646.252 336.938 645.905 337.038 645.587 337.201C645.27 337.365 644.988 337.59 644.757 337.863Z" fill="#FAE0B2"/>
<path d="M645.3 341.325C645.623 341.596 646.032 341.742 646.454 341.737C646.875 341.732 647.281 341.576 647.597 341.297C647.912 341.018 648.117 340.635 648.174 340.218C648.23 339.801 648.135 339.377 647.905 339.024C647.73 338.761 647.488 338.548 647.204 338.41C646.92 338.271 646.603 338.211 646.288 338.236C645.942 338.267 645.614 338.399 645.343 338.615C645.072 338.831 644.871 339.123 644.766 339.453C644.66 339.783 644.655 340.136 644.75 340.47C644.845 340.803 645.037 341.1 645.3 341.325Z" fill="#F47458"/>
<path d="M632.505 333.692C632.503 334.23 632.661 334.755 632.958 335.203C633.256 335.651 633.679 336 634.176 336.207C634.672 336.415 635.219 336.47 635.747 336.367C636.275 336.264 636.76 336.006 637.142 335.628C637.523 335.249 637.784 334.766 637.89 334.239C637.997 333.713 637.944 333.166 637.74 332.669C637.535 332.173 637.188 331.748 636.741 331.448C636.295 331.148 635.769 330.988 635.231 330.987C634.51 330.985 633.818 331.269 633.307 331.776C632.796 332.284 632.508 332.973 632.505 333.692Z" fill="#FAE0B2"/>
<path d="M635.151 335.996C635.499 335.997 635.839 335.896 636.129 335.704C636.419 335.512 636.645 335.238 636.779 334.918C636.913 334.598 636.949 334.245 636.882 333.904C636.815 333.563 636.649 333.25 636.404 333.004C636.158 332.758 635.846 332.589 635.505 332.521C635.164 332.452 634.81 332.486 634.489 332.618C634.167 332.751 633.892 332.975 633.698 333.263C633.504 333.552 633.4 333.891 633.4 334.238C633.399 334.703 633.583 335.149 633.911 335.479C634.24 335.808 634.685 335.995 635.151 335.996Z" fill="#F47458"/>
<path d="M620.435 338.358C620.78 338.768 621.238 339.068 621.753 339.219C622.268 339.37 622.817 339.365 623.329 339.205C623.841 339.044 624.294 338.736 624.631 338.319C624.968 337.902 625.174 337.395 625.223 336.861C625.271 336.328 625.16 335.792 624.904 335.321C624.648 334.85 624.258 334.466 623.783 334.216C623.308 333.966 622.769 333.863 622.236 333.918C621.702 333.974 621.197 334.186 620.783 334.528C620.508 334.757 620.281 335.037 620.114 335.353C619.947 335.669 619.845 336.015 619.812 336.371C619.78 336.727 619.818 337.085 619.925 337.426C620.032 337.767 620.205 338.084 620.435 338.358Z" fill="#FAE0B2"/>
<path d="M621.471 338.201C621.693 338.468 621.99 338.663 622.323 338.761C622.657 338.859 623.012 338.857 623.344 338.754C623.676 338.65 623.97 338.451 624.189 338.181C624.407 337.911 624.54 337.582 624.572 337.236C624.603 336.89 624.531 336.543 624.365 336.238C624.198 335.933 623.945 335.685 623.637 335.523C623.329 335.362 622.98 335.296 622.634 335.333C622.288 335.37 621.961 335.509 621.694 335.731C621.337 336.029 621.113 336.457 621.071 336.92C621.029 337.383 621.173 337.844 621.471 338.201Z" fill="#F47458"/>
<path d="M640.98 369.663C640.739 369.184 640.646 368.644 640.712 368.112C640.779 367.579 641.001 367.079 641.353 366.673C641.704 366.267 642.167 365.975 642.685 365.832C643.203 365.689 643.751 365.703 644.261 365.872C644.771 366.04 645.219 366.356 645.55 366.779C645.88 367.202 646.077 367.713 646.117 368.248C646.156 368.782 646.036 369.317 645.771 369.784C645.506 370.25 645.109 370.628 644.629 370.869C643.985 371.192 643.239 371.246 642.555 371.02C641.87 370.794 641.304 370.306 640.98 369.663Z" fill="#FAE0B2"/>
<path d="M641.641 368.958C641.827 369.241 642.091 369.464 642.401 369.601C642.712 369.738 643.055 369.782 643.39 369.728C643.724 369.675 644.036 369.526 644.288 369.299C644.54 369.072 644.721 368.778 644.809 368.451C644.897 368.124 644.888 367.778 644.784 367.456C644.68 367.134 644.484 366.849 644.222 366.635C643.959 366.421 643.64 366.288 643.303 366.251C642.966 366.214 642.625 366.275 642.322 366.427C642.101 366.538 641.905 366.695 641.749 366.887C641.592 367.079 641.478 367.301 641.414 367.54C641.35 367.779 641.337 368.029 641.376 368.273C641.415 368.518 641.506 368.751 641.641 368.958Z" fill="#F47458"/>
<path d="M650.084 360.476C649.591 360.264 649.173 359.91 648.881 359.459C648.589 359.009 648.438 358.482 648.446 357.946C648.454 357.41 648.621 356.888 648.926 356.447C649.231 356.005 649.66 355.664 650.16 355.466C650.659 355.268 651.205 355.223 651.731 355.335C652.256 355.447 652.736 355.712 653.11 356.097C653.484 356.481 653.736 356.968 653.833 357.495C653.931 358.023 653.869 358.567 653.657 359.06C653.516 359.387 653.311 359.684 653.055 359.932C652.799 360.18 652.497 360.376 652.165 360.508C651.833 360.639 651.478 360.704 651.121 360.699C650.764 360.693 650.412 360.618 650.084 360.476Z" fill="#FAE0B2"/>
<path d="M649.17 358.795C649.321 359.023 649.523 359.213 649.76 359.35C649.997 359.487 650.263 359.566 650.536 359.582C650.809 359.598 651.083 359.55 651.334 359.442C651.586 359.334 651.808 359.169 651.984 358.959C652.161 358.75 652.285 358.502 652.349 358.236C652.412 357.97 652.412 357.693 652.349 357.427C652.286 357.161 652.162 356.913 651.986 356.704C651.811 356.494 651.588 356.328 651.337 356.22C650.99 356.07 650.603 356.035 650.235 356.122C649.867 356.209 649.536 356.412 649.293 356.701C649.05 356.991 648.906 357.351 648.884 357.728C648.862 358.105 648.962 358.479 649.17 358.795Z" fill="#F47458"/>
<path d="M651.145 347.595C650.631 347.749 650.082 347.747 649.568 347.59C649.054 347.433 648.599 347.127 648.259 346.711C647.92 346.295 647.711 345.788 647.661 345.254C647.61 344.72 647.718 344.183 647.973 343.711C648.228 343.238 648.618 342.852 649.092 342.601C649.567 342.35 650.106 342.244 650.64 342.299C651.175 342.353 651.681 342.565 652.095 342.907C652.509 343.248 652.813 343.705 652.967 344.219C653.173 344.908 653.097 345.65 652.756 346.284C652.414 346.917 651.835 347.388 651.145 347.595Z" fill="#FAE0B2"/>
<path d="M651.414 346.047C651.55 345.793 651.622 345.509 651.622 345.22C651.623 344.931 651.552 344.647 651.415 344.392C651.279 344.137 651.082 343.92 650.842 343.76C650.602 343.599 650.325 343.5 650.038 343.472C649.75 343.443 649.46 343.486 649.192 343.597C648.925 343.707 648.689 343.882 648.506 344.105C648.323 344.328 648.197 344.593 648.141 344.876C648.084 345.159 648.099 345.452 648.183 345.728C648.285 346.059 648.483 346.352 648.751 346.571C649.02 346.791 649.347 346.926 649.692 346.96C650.037 346.994 650.385 346.925 650.691 346.763C650.997 346.601 651.249 346.352 651.414 346.047Z" fill="#F47458"/>
<path d="M649.468 361.695C649.003 361.426 648.469 361.3 647.933 361.333C647.397 361.366 646.883 361.558 646.456 361.883C646.029 362.208 645.708 362.652 645.533 363.159C645.359 363.666 645.339 364.214 645.476 364.732C645.613 365.251 645.901 365.717 646.303 366.072C646.706 366.427 647.204 366.655 647.737 366.728C648.269 366.8 648.811 366.713 649.293 366.477C649.776 366.242 650.178 365.87 650.449 365.406C650.628 365.098 650.746 364.758 650.794 364.405C650.842 364.052 650.82 363.692 650.728 363.348C650.637 363.003 650.479 362.68 650.263 362.396C650.046 362.113 649.776 361.875 649.468 361.695Z" fill="#FAE0B2"/>
<path d="M648.116 365.409C648.394 365.335 648.65 365.194 648.861 364.998C649.072 364.802 649.231 364.556 649.324 364.284C649.417 364.012 649.442 363.721 649.396 363.437C649.35 363.153 649.235 362.885 649.06 362.656C648.886 362.427 648.657 362.244 648.396 362.124C648.134 362.004 647.846 361.951 647.558 361.968C647.271 361.986 646.992 362.073 646.746 362.224C646.501 362.374 646.296 362.583 646.15 362.831C645.976 363.131 645.895 363.476 645.917 363.821C645.938 364.167 646.062 364.499 646.272 364.775C646.482 365.05 646.77 365.258 647.098 365.371C647.426 365.484 647.78 365.497 648.116 365.409Z" fill="#F47458"/>
<path d="M643.664 337.049C643.369 337.497 642.947 337.847 642.452 338.056C641.957 338.264 641.412 338.322 640.884 338.221C640.357 338.12 639.871 337.865 639.489 337.488C639.106 337.112 638.844 336.63 638.736 336.105C638.627 335.58 638.677 335.034 638.879 334.537C639.081 334.04 639.426 333.614 639.87 333.313C640.315 333.012 640.838 332.849 641.376 332.845C641.913 332.841 642.439 332.996 642.888 333.29C643.186 333.486 643.443 333.739 643.643 334.034C643.844 334.328 643.984 334.66 644.056 335.009C644.128 335.358 644.131 335.718 644.064 336.068C643.996 336.418 643.861 336.752 643.664 337.049Z" fill="#FAE0B2"/>
<path d="M640.187 337.509C640.55 337.746 640.989 337.841 641.418 337.775C641.847 337.709 642.236 337.486 642.51 337.149C642.784 336.813 642.924 336.387 642.902 335.954C642.879 335.521 642.697 335.112 642.39 334.805C642.083 334.499 641.673 334.317 641.239 334.294C640.806 334.272 640.379 334.411 640.042 334.685C639.706 334.959 639.482 335.347 639.416 335.776C639.349 336.204 639.444 336.642 639.682 337.005C639.815 337.205 639.987 337.376 640.187 337.509Z" fill="#F47458"/>
<path d="M651.458 348.926C650.929 349.017 650.438 349.263 650.049 349.632C649.659 350.002 649.388 350.478 649.27 351.001C649.152 351.525 649.192 352.071 649.384 352.572C649.577 353.073 649.915 353.505 650.354 353.814C650.793 354.124 651.314 354.296 651.851 354.31C652.388 354.323 652.917 354.178 653.371 353.891C653.825 353.604 654.184 353.19 654.402 352.7C654.62 352.209 654.688 351.665 654.596 351.137C654.474 350.428 654.074 349.797 653.486 349.382C652.897 348.968 652.168 348.803 651.458 348.926Z" fill="#FAE0B2"/>
<path d="M651.676 353.354C652.018 353.296 652.336 353.137 652.588 352.898C652.84 352.659 653.016 352.35 653.093 352.011C653.169 351.673 653.143 351.319 653.019 350.995C652.894 350.671 652.675 350.391 652.391 350.191C652.107 349.991 651.77 349.879 651.422 349.87C651.075 349.862 650.732 349.956 650.438 350.142C650.145 350.327 649.912 350.596 649.771 350.913C649.63 351.231 649.587 351.583 649.646 351.925C649.727 352.383 649.985 352.79 650.366 353.058C650.746 353.326 651.217 353.432 651.676 353.354Z" fill="#F47458"/>
<path d="M624.148 338.756L623.717 339.037L641.67 366.389L642.098 366.108L634.109 353.881L645.841 362.592L646.16 362.18L633.937 353.102L648.512 357.525L648.662 357.037L634.675 352.793L649.269 351.934L649.237 351.424L634.033 352.317L648.042 346.35L647.841 345.878L634.394 351.622L645.019 341.596L644.668 341.223L633.598 351.67L640.488 338.109L640.031 337.876L633.416 350.894L635.103 336.392L634.595 336.334L632.837 351.443L629.383 336.628L628.881 336.746L632.198 350.961L624.148 338.756Z" fill="#F47458"/>
<path d="M633.364 350.776L575.946 388.335L577.149 390.169L634.567 352.609L633.364 350.776Z" fill="#F47458"/>
<path d="M603.498 264.438C604.029 265.176 604.328 266.054 604.359 266.962C604.389 267.87 604.149 268.766 603.67 269.538C603.19 270.309 602.492 270.921 601.664 271.297C600.835 271.672 599.914 271.794 599.017 271.647C598.119 271.499 597.286 271.09 596.622 270.469C595.957 269.849 595.492 269.046 595.285 268.162C595.078 267.277 595.138 266.352 595.458 265.501C595.778 264.651 596.343 263.915 597.082 263.385C598.072 262.675 599.305 262.387 600.508 262.585C601.712 262.782 602.787 263.449 603.498 264.438Z" fill="#FAE0B2"/>
<path d="M598.996 270.421C601.766 271.879 604.62 268.596 602.802 266.062C602.54 265.698 602.2 265.398 601.805 265.184C601.411 264.97 600.973 264.848 600.525 264.826C600.077 264.805 599.63 264.885 599.217 265.061C598.804 265.237 598.437 265.504 598.142 265.841C597.847 266.179 597.632 266.579 597.514 267.011C597.396 267.444 597.377 267.897 597.459 268.338C597.541 268.778 597.722 269.194 597.988 269.555C598.255 269.916 598.599 270.212 598.996 270.421Z" fill="#F47458"/>
<path d="M627.025 259.352C626.847 260.243 626.939 261.167 627.288 262.007C627.637 262.846 628.227 263.563 628.984 264.067C629.742 264.571 630.632 264.84 631.542 264.838C632.452 264.837 633.342 264.566 634.097 264.059C634.853 263.553 635.441 262.834 635.788 261.994C636.134 261.153 636.223 260.229 636.043 259.338C635.863 258.447 635.422 257.63 634.776 256.989C634.13 256.349 633.309 255.914 632.416 255.74C631.221 255.507 629.983 255.757 628.973 256.434C627.962 257.111 627.262 258.16 627.025 259.352Z" fill="#FAE0B2"/>
<path d="M630.674 264.03C631.447 264.183 632.25 264.022 632.905 263.584C633.56 263.146 634.014 262.466 634.167 261.694C634.32 260.922 634.159 260.121 633.721 259.467C633.282 258.813 632.601 258.359 631.828 258.207C631.444 258.128 631.048 258.127 630.664 258.203C630.28 258.279 629.915 258.431 629.591 258.65C629.104 258.979 628.726 259.443 628.503 259.986C628.28 260.529 628.223 261.125 628.339 261.7C628.455 262.275 628.738 262.803 629.154 263.218C629.569 263.632 630.098 263.915 630.674 264.03Z" fill="#F47458"/>
<path d="M605.457 263.207C605.895 264.003 606.56 264.651 607.367 265.07C608.174 265.489 609.087 265.659 609.991 265.56C610.895 265.46 611.749 265.095 612.446 264.511C613.142 263.927 613.649 263.149 613.903 262.277C614.157 261.405 614.146 260.477 613.872 259.612C613.598 258.746 613.073 257.98 612.363 257.412C611.653 256.844 610.791 256.499 609.885 256.421C608.978 256.343 608.069 256.534 607.272 256.972C606.204 257.558 605.412 258.545 605.072 259.714C604.731 260.883 604.87 262.139 605.457 263.207Z" fill="#FAE0B2"/>
<path d="M611.264 264.451C611.733 264.192 612.123 263.811 612.393 263.349C612.664 262.887 612.804 262.361 612.8 261.825C612.796 261.29 612.647 260.766 612.369 260.308C612.091 259.851 611.695 259.476 611.222 259.224C608.592 257.836 605.831 260.74 607.228 263.277C607.415 263.619 607.669 263.92 607.973 264.164C608.278 264.408 608.627 264.59 609.002 264.699C609.377 264.808 609.769 264.842 610.158 264.8C610.546 264.757 610.922 264.639 611.264 264.451Z" fill="#F47458"/>
<path d="M591.419 280C592.267 280.329 593.193 280.399 594.081 280.201C594.969 280.004 595.778 279.549 596.407 278.892C597.035 278.236 597.454 277.408 597.612 276.513C597.769 275.619 597.657 274.698 597.29 273.867C596.923 273.036 596.318 272.332 595.55 271.845C594.783 271.358 593.888 271.108 592.978 271.129C592.069 271.15 591.186 271.439 590.442 271.96C589.697 272.482 589.124 273.212 588.795 274.059C588.354 275.194 588.383 276.458 588.875 277.572C589.367 278.686 590.282 279.56 591.419 280Z" fill="#FAE0B2"/>
<path d="M592.819 278.922C593.367 279.136 593.968 279.183 594.543 279.056C595.119 278.93 595.644 278.635 596.051 278.211C596.459 277.786 596.731 277.249 596.833 276.67C596.935 276.09 596.863 275.493 596.625 274.955C596.386 274.417 595.994 273.961 595.496 273.646C594.998 273.331 594.418 273.171 593.829 273.186C593.239 273.2 592.668 273.389 592.187 273.729C591.705 274.068 591.336 274.543 591.125 275.093C590.845 275.825 590.866 276.638 591.183 277.355C591.5 278.072 592.088 278.635 592.819 278.922Z" fill="#F47458"/>
<path d="M647.553 309.535C646.802 309.022 646.221 308.299 645.881 307.456C645.542 306.614 645.461 305.69 645.648 304.801C645.834 303.912 646.281 303.098 646.931 302.463C647.581 301.828 648.405 301.399 649.299 301.231C650.192 301.063 651.116 301.164 651.953 301.52C652.789 301.877 653.501 302.473 653.998 303.233C654.496 303.994 654.756 304.884 654.746 305.792C654.737 306.7 654.458 307.585 653.945 308.335C653.256 309.339 652.196 310.03 650.998 310.255C649.799 310.48 648.56 310.221 647.553 309.535Z" fill="#FAE0B2"/>
<path d="M647.95 307.946C648.458 308.212 649.032 308.326 649.603 308.274C650.175 308.222 650.719 308.006 651.171 307.652C651.622 307.298 651.961 306.822 652.147 306.28C652.334 305.738 652.359 305.154 652.22 304.598C652.082 304.042 651.785 303.538 651.366 303.146C650.947 302.755 650.423 302.493 649.858 302.392C649.293 302.291 648.711 302.355 648.182 302.576C647.653 302.798 647.199 303.168 646.876 303.641C646.638 303.987 646.477 304.379 646.402 304.791C646.328 305.204 646.342 305.628 646.443 306.034C646.545 306.441 646.731 306.822 646.991 307.151C647.251 307.481 647.577 307.751 647.95 307.946Z" fill="#F47458"/>
<path d="M653.487 288.475C652.583 288.564 651.671 288.383 650.869 287.955C650.067 287.527 649.411 286.871 648.982 286.07C648.553 285.27 648.372 284.36 648.461 283.456C648.55 282.553 648.905 281.696 649.481 280.994C650.058 280.291 650.83 279.776 651.701 279.512C652.571 279.248 653.5 279.248 654.37 279.511C655.24 279.774 656.013 280.289 656.59 280.991C657.167 281.692 657.523 282.549 657.613 283.453C657.673 284.053 657.613 284.659 657.438 285.236C657.263 285.814 656.976 286.351 656.592 286.817C656.209 287.284 655.738 287.67 655.205 287.955C654.672 288.239 654.089 288.416 653.487 288.475Z" fill="#FAE0B2"/>
<path d="M650.752 286.733C651.163 286.949 651.618 287.066 652.082 287.075C652.546 287.084 653.005 286.985 653.424 286.785C653.842 286.585 654.208 286.29 654.492 285.923C654.776 285.557 654.97 285.129 655.059 284.675C655.148 284.22 655.13 283.751 655.005 283.305C654.88 282.859 654.652 282.448 654.34 282.105C654.027 281.763 653.639 281.498 653.206 281.332C652.773 281.166 652.307 281.103 651.845 281.149C648.921 281.436 648.151 285.361 650.752 286.733Z" fill="#F47458"/>
<path d="M644.479 268.532C643.843 269.182 643.029 269.628 642.139 269.815C641.249 270.002 640.323 269.922 639.479 269.584C638.635 269.246 637.91 268.665 637.397 267.916C636.883 267.167 636.603 266.282 636.593 265.374C636.583 264.466 636.842 263.575 637.339 262.815C637.836 262.054 638.547 261.457 639.383 261.1C640.219 260.743 641.143 260.642 642.037 260.809C642.931 260.976 643.755 261.404 644.405 262.039C645.276 262.891 645.773 264.053 645.786 265.27C645.8 266.488 645.33 267.661 644.479 268.532Z" fill="#FAE0B2"/>
<path d="M643.6 266.018C643.595 265.529 643.47 265.049 643.234 264.62C642.999 264.192 642.661 263.828 642.251 263.56C641.842 263.293 641.372 263.131 640.884 263.089C640.396 263.046 639.906 263.124 639.456 263.317C639.005 263.509 638.61 263.809 638.304 264.19C637.998 264.572 637.79 265.023 637.701 265.503C637.611 265.984 637.641 266.479 637.789 266.945C637.937 267.411 638.197 267.833 638.548 268.175C638.966 268.593 639.499 268.876 640.08 268.988C640.661 269.1 641.262 269.036 641.805 268.804C642.349 268.572 642.811 268.182 643.131 267.686C643.451 267.189 643.614 266.608 643.6 266.018Z" fill="#F47458"/>
<path d="M653.577 290.785C652.668 290.766 651.773 291.016 651.006 291.504C650.239 291.993 649.635 292.697 649.269 293.529C648.903 294.36 648.792 295.281 648.951 296.176C649.109 297.07 649.53 297.897 650.159 298.553C650.789 299.209 651.599 299.663 652.487 299.859C653.375 300.055 654.301 299.984 655.149 299.654C655.996 299.324 656.727 298.751 657.248 298.007C657.769 297.262 658.057 296.38 658.077 295.473C658.102 294.255 657.643 293.078 656.799 292.199C655.955 291.319 654.796 290.811 653.577 290.785Z" fill="#FAE0B2"/>
<path d="M654.625 297.387C654.978 297.049 655.241 296.63 655.392 296.166C655.544 295.702 655.578 295.208 655.493 294.728C655.407 294.248 655.205 293.796 654.903 293.412C654.601 293.029 654.209 292.726 653.761 292.53C653.314 292.333 652.825 292.251 652.338 292.288C651.851 292.326 651.381 292.482 650.969 292.745C650.557 293.007 650.216 293.367 649.976 293.792C649.737 294.217 649.606 294.694 649.595 295.182C649.586 295.768 649.749 296.344 650.066 296.837C650.383 297.33 650.839 297.719 651.376 297.955C651.913 298.19 652.508 298.262 653.087 298.161C653.665 298.06 654.2 297.791 654.625 297.387Z" fill="#F47458"/>
<path d="M624.746 259.039C624.676 259.945 624.34 260.809 623.778 261.523C623.217 262.237 622.456 262.769 621.592 263.052C620.727 263.334 619.799 263.355 618.923 263.11C618.047 262.866 617.264 262.367 616.671 261.678C616.079 260.989 615.705 260.141 615.596 259.239C615.487 258.338 615.648 257.424 616.058 256.614C616.469 255.804 617.111 255.134 617.903 254.688C618.695 254.242 619.602 254.041 620.509 254.11C621.111 254.155 621.699 254.319 622.238 254.591C622.777 254.864 623.257 255.24 623.651 255.698C624.044 256.155 624.343 256.686 624.531 257.26C624.719 257.833 624.792 258.438 624.746 259.039Z" fill="#FAE0B2"/>
<path d="M619.969 262.568C620.702 262.616 621.427 262.39 622.003 261.935C622.58 261.479 622.966 260.826 623.088 260.102C623.21 259.379 623.059 258.636 622.664 258.017C622.269 257.398 621.658 256.947 620.949 256.753C620.241 256.558 619.485 256.632 618.828 256.962C618.171 257.291 617.66 257.852 617.394 258.536C617.127 259.22 617.125 259.978 617.386 260.664C617.647 261.35 618.154 261.915 618.809 262.249C619.17 262.433 619.564 262.541 619.969 262.568Z" fill="#F47458"/>
<path d="M646.035 270.246C645.326 270.814 644.802 271.58 644.529 272.446C644.255 273.312 644.245 274.24 644.5 275.112C644.755 275.984 645.263 276.76 645.96 277.344C646.657 277.928 647.511 278.292 648.415 278.39C649.319 278.489 650.232 278.318 651.039 277.898C651.846 277.479 652.51 276.83 652.947 276.033C653.384 275.237 653.575 274.329 653.495 273.424C653.416 272.52 653.07 271.659 652.5 270.951C652.122 270.48 651.655 270.089 651.126 269.799C650.596 269.509 650.015 269.326 649.414 269.26C648.814 269.195 648.206 269.248 647.626 269.417C647.047 269.586 646.506 269.868 646.035 270.246Z" fill="#FAE0B2"/>
<path d="M649.992 276.627C650.45 276.26 650.788 275.765 650.965 275.205C651.141 274.645 651.148 274.046 650.983 273.483C650.818 272.919 650.49 272.417 650.04 272.04C649.589 271.663 649.037 271.428 648.453 271.364C647.869 271.301 647.279 271.411 646.757 271.682C646.236 271.953 645.807 272.372 645.524 272.887C645.242 273.401 645.118 273.988 645.169 274.572C645.22 275.157 645.444 275.713 645.812 276.171C646.307 276.783 647.024 277.175 647.807 277.26C648.591 277.346 649.376 277.118 649.992 276.627Z" fill="#F47458"/>
<path d="M597.238 277.55L596.835 278.318L645.882 304.12L646.288 303.354L624.427 291.784L648.95 295.077L649.065 294.218L623.5 290.788L648.713 285.399L648.531 284.553L624.343 289.729L645.249 276.512L644.786 275.779L623.001 289.553L638.848 269.244L638.161 268.711L622.953 288.201L630.453 264.655L629.626 264.39L621.812 288.925L620.879 263.197L620.01 263.229L620.908 287.923L611.494 265.07L610.692 265.389L620.499 289.202L603.214 270.096L602.575 270.676L619.16 289.011L597.238 277.55Z" fill="#F47458"/>
<path d="M620.781 287.843L566.608 390.481L569.896 392.211L624.069 289.573L620.781 287.843Z" fill="#F47458"/>
<path d="M572.613 393.406C572.613 393.406 534.981 365.512 529.836 353.492C524.691 341.472 535.31 342.828 535.31 342.828C535.31 342.828 520.115 321.331 524.147 314.225C528.18 307.119 536.575 316.194 536.575 316.194C536.575 316.194 529.523 287.109 535.655 285.491C547.07 282.479 556.427 313.778 556.427 313.778C556.427 313.778 555.586 300.785 562.732 302.534C573.507 305.176 567.806 333.166 567.806 333.166C567.806 333.166 571.242 328.204 577.154 332.923C587.757 341.379 572.613 393.406 572.613 393.406Z" fill="#466EB6"/>
<path d="M578.748 333.635C572.836 328.916 567.806 333.153 567.806 333.153C567.806 333.153 573.507 305.176 562.732 302.521C555.586 300.772 556.427 313.766 556.427 313.766C556.427 313.766 547.057 282.467 535.655 285.479L572.907 393.304C574.575 386.584 588.651 341.545 578.748 333.635Z" fill="#355389"/>
<path d="M572.561 392.436C572.561 392.436 533.997 392.394 526.036 385.735C518.076 379.076 527.842 378.54 527.842 378.54C527.842 378.54 509.409 368.769 509.678 362.266C509.946 355.764 516.194 357.065 516.194 357.065C516.194 357.065 503.456 345.671 506.073 340.154C510.09 331.663 528.312 347.764 528.312 347.764C528.312 347.764 526.918 341.306 532.568 339.959C541.091 337.924 549.735 362.117 549.735 362.117C549.735 362.117 545.661 351.22 551.515 352.429C562.019 354.573 572.561 392.436 572.561 392.436Z" fill="#86B1F2"/>
<path d="M574.166 394.58C574.166 394.58 608.394 365.413 612.571 353.664C616.747 341.915 606.713 343.849 606.713 343.849C606.713 343.849 619.866 322.47 615.597 315.961C611.328 309.452 605.278 313.3 605.278 313.3C605.278 313.3 608.835 290.488 602.904 289.317C591.86 287.144 584.845 317.493 584.845 317.493C584.845 317.493 584.845 305.077 578.163 307.173C568.072 310.339 575.195 336.612 575.195 336.612C575.195 336.612 571.468 326.791 566.132 331.638C556.558 340.339 574.166 394.58 574.166 394.58Z" fill="#355389"/>
<path d="M563.821 329.541C570.008 325.833 573.728 330.776 573.728 330.776C573.728 330.776 568.071 310.339 578.163 307.164C584.874 305.067 584.845 317.483 584.845 317.483C584.845 317.483 591.86 287.135 602.904 289.308L574.009 394.153C572.018 387.857 556.452 333.954 563.821 329.541Z" fill="#466EB6"/>
<path d="M577.611 390.394C577.611 390.394 615.214 390.394 620.432 389.8C625.65 389.207 619.882 384.532 619.882 384.532C619.882 384.532 631.582 384.957 633.365 382.114C635.148 379.271 630.37 378.154 630.37 378.154C630.37 378.154 642.022 374.781 641.466 372.308C640.43 367.701 627.561 370.713 627.561 370.713C627.561 370.713 632.355 368.396 630.399 366.246C627.469 362.997 614.958 371.83 614.958 371.83C614.958 371.83 619.652 362.956 616.875 361.833C611.922 359.803 577.611 390.394 577.611 390.394Z" fill="#9BC1F9"/>
<path d="M604.754 432.653H542.174C534.201 425.385 529.347 415.375 529.523 404.392C529.612 398.846 530.756 394.009 533.14 389.261L613.83 390.167C616.111 395.072 617.252 400.428 617.166 405.834C616.997 416.297 612.283 425.729 604.754 432.653Z" fill="#F47458"/>
</g>
<defs>
<clipPath id="clip0">
<rect width="727" height="492" fill="white"/>
</clipPath>
</defs>
</svg>
